<?xml version="1.0" encoding="utf-8"?>
<!-- Generator: Adobe Illustrator 21.0.0, SVG Export Plug-In . SVG Version: 6.00 Build 0)  -->
<svg version="1.1" id="Layer_1" xmlns="http://www.w3.org/2000/svg" xmlns:xlink="http://www.w3.org/1999/xlink" x="0px" y="0px"
	 width="256px" height="256px" viewBox="0 0 256 256" style="enable-background:new 0 0 256 256;" xml:space="preserve">
<style type="text/css">
	.st0{fill:#470909;}
</style>
<path class="st0" d="M198.4,6.4c-4.3-4.3-9.6-6.4-14.9-6.4H21.3C9.6,0,0,9.6,0,21.3V192v42.7C0,246.4,9.6,256,21.3,256h213.3
	c11.7,0,21.3-9.6,21.3-21.3V192V72.5c0-5.3-2.1-10.7-6.4-14.9L198.4,6.4z M128,214c-18.1,0-32-13.9-32-32s13.9-32,32-32
	s32,13.9,32,32S146.1,214,128,214z M184,107H32V32h152V107z"/>
</svg>
